<?xml version="1.0" standalone="no"?><svg xmlns="http://www.w3.org/2000/svg" viewBox="0 0 1440 320"><path fill="#5000ca" fill-opacity="1" d="M0,128L34.3,106.7C68.6,85,137,43,206,53.3C274.3,64,343,128,411,181.3C480,235,549,277,617,256C685.7,235,754,149,823,117.3C891.4,85,960,107,1029,112C1097.1,117,1166,107,1234,128C1302.9,149,1371,203,1406,229.3L1440,256L1440,0L1405.7,0C1371.4,0,1303,0,1234,0C1165.7,0,1097,0,1029,0C960,0,891,0,823,0C754.3,0,686,0,617,0C548.6,0,480,0,411,0C342.9,0,274,0,206,0C137.1,0,69,0,34,0L0,0Z"></path></svg>