<?xml version="1.0" standalone="no"?><svg xmlns="http://www.w3.org/2000/svg" viewBox="0 0 1440 320"><path fill="#f3f4f5" fill-opacity="1" d="M0,96L40,112C80,128,160,160,240,144C320,128,400,64,480,74.7C560,85,640,171,720,186.7C800,203,880,149,960,149.3C1040,149,1120,203,1200,186.7C1280,171,1360,85,1400,42.7L1440,0L1440,320L1400,320C1360,320,1280,320,1200,320C1120,320,1040,320,960,320C880,320,800,320,720,320C640,320,560,320,480,320C400,320,320,320,240,320C160,320,80,320,40,320L0,320Z"></path></svg>